<?xml version="1.0"?>
<svg xmlns="http://www.w3.org/2000/svg" id="bold" enable-background="new 0 0 24 24" height="512px" viewBox="0 0 24 24" width="512px" class=""><g><g><g><path d="m6 9c-.553 0-1-.448-1-1v-1c0-.552.447-1 1-1s1 .448 1 1v1c0 .552-.447 1-1 1z" data-original="#000000" class="active-path" data-old_color="#000000" fill="#00b2e1"/></g></g><g><g><path d="m17 9c-.553 0-1-.448-1-1v-1c0-.552.447-1 1-1s1 .448 1 1v1c0 .552-.447 1-1 1z" data-original="#000000" class="active-path" data-old_color="#000000" fill="#00b2e1"/></g></g><g><g></g></g><g><g><path d="m11.5 20c-1.784 0-3.455-.955-4.361-2.492-.28-.476-.122-1.089.354-1.369.474-.281 1.088-.123 1.369.354.548.929 1.559 1.507 2.638 1.507s2.09-.578 2.639-1.508c.28-.477.893-.635 1.369-.354.476.28.634.894.354 1.369-.907 1.538-2.578 2.493-4.362 2.493z" data-original="#000000" class="active-path" data-old_color="#000000" fill="#00b2e1"/></g></g><g><g><g><path d="m23 8c-.552 0-1-.448-1-1v-4c0-.551-.449-1-1-1h-4c-.552 0-1-.448-1-1s.448-1 1-1h4c1.654 0 3 1.346 3 3v4c0 .552-.448 1-1 1z" data-original="#000000" class="active-path" data-old_color="#000000" fill="#00b2e1"/></g></g></g><g><g><g><path d="m1 8c-.552 0-1-.448-1-1v-4c0-1.654 1.346-3 3-3h4c.552 0 1 .448 1 1s-.448 1-1 1h-4c-.551 0-1 .449-1 1v4c0 .552-.448 1-1 1z" data-original="#000000" class="active-path" data-old_color="#000000" fill="#00b2e1"/></g></g></g><g><g><g><path d="m21 24h-4c-.552 0-1-.448-1-1s.448-1 1-1h4c.551 0 1-.449 1-1v-4c0-.552.448-1 1-1s1 .448 1 1v4c0 1.654-1.346 3-3 3z" data-original="#000000" class="active-path" data-old_color="#000000" fill="#00b2e1"/></g></g></g><g><g><g><path d="m7 24h-4c-1.654 0-3-1.346-3-3v-4c0-.552.448-1 1-1s1 .448 1 1v4c0 .551.449 1 1 1h4c.552 0 1 .448 1 1s-.448 1-1 1z" data-original="#000000" class="active-path" data-old_color="#000000" fill="#00b2e1"/></g></g></g></g> </svg>
